HIERARCHY
ROOT HipCenter
{
    OFFSET 0.0 0.0 -0.0
    CHANNELS 6 Xposition Yposition Zposition Zrotation Xrotation Yrotation
    JOINT Spine
    {
        OFFSET 0.0 11.535909652709961 0.0
        CHANNELS 3 Zrotation Xrotation Yrotation
        JOINT ShoulderCenter
        {
            OFFSET 0.0 32.76346969604492 0.0
            CHANNELS 3 Zrotation Xrotation Yrotation
            JOINT LeftShoulder
            {
                OFFSET 19.210508346557617 0.0 0.0
                CHANNELS 3 Zrotation Xrotation Yrotation
                JOINT LeftElbow
                {
                    OFFSET 28.85390853881836 0.0 0.0
                    CHANNELS 3 Zrotation Xrotation Yrotation
                    JOINT LeftWrist
                    {
                        OFFSET 29.32882308959961 0.0 0.0
                        CHANNELS 3 Zrotation Xrotation Yrotation
                        JOINT LeftHand
                        {
                            OFFSET 3.7689013481140137 0.0 0.0
                            CHANNELS 3 Zrotation Xrotation Yrotation
                            End Site
                            {
                                OFFSET 1.5075607299804688 0.0 0.0
                            }
                        }
                    }
                }
            }
            JOINT RightShoulder
            {
                OFFSET -19.210508346557617 0.0 0.0
                CHANNELS 3 Zrotation Xrotation Yrotation
                JOINT RightElbow
                {
                    OFFSET -28.85390853881836 0.0 0.0
                    CHANNELS 3 Zrotation Xrotation Yrotation
                    JOINT RightWrist
                    {
                        OFFSET -29.32882308959961 0.0 0.0
                        CHANNELS 3 Zrotation Xrotation Yrotation
                        JOINT RightHand
                        {
                            OFFSET -3.7689013481140137 0.0 0.0
                            CHANNELS 3 Zrotation Xrotation Yrotation
                            End Site
                            {
                                OFFSET -1.5075607299804688 0.0 0.0
                            }
                        }
                    }
                }
            }
            End Site
            {
                OFFSET 0.0 13.105390548706055 0.0
            }
        }
    }
    JOINT LeftHip
    {
        OFFSET 13.485254287719727 0.0 0.0
        CHANNELS 3 Zrotation Xrotation Yrotation
        JOINT LeftKnee
        {
            OFFSET 0.0 -41.173683166503906 0.0
            CHANNELS 3 Zrotation Xrotation Yrotation
            JOINT LeftAnkle
            {
                OFFSET 0.0 -42.33759307861328 0.0
                CHANNELS 3 Zrotation Xrotation Yrotation
                JOINT LeftFoot
                {
                    OFFSET 0.0 -13.490705490112305 0.0
                    CHANNELS 3 Zrotation Xrotation Yrotation
                    End Site
                    {
                        OFFSET 0.0 0.0 5.396281719207764
                    }
                }
            }
        }
    }
    JOINT RightHip
    {
        OFFSET -13.485254287719727 0.0 0.0
        CHANNELS 3 Zrotation Xrotation Yrotation
        JOINT RightKnee
        {
            OFFSET 0.0 -41.173683166503906 0.0
            CHANNELS 3 Zrotation Xrotation Yrotation
            JOINT RightAnkle
            {
                OFFSET 0.0 -42.33759307861328 0.0
                CHANNELS 3 Zrotation Xrotation Yrotation
                JOINT RightFoot
                {
                    OFFSET 0.0 -13.490705490112305 0.0
                    CHANNELS 3 Zrotation Xrotation Yrotation
                    End Site
                    {
                        OFFSET 0.0 0.0 5.396281719207764
                    }
                }
            }
        }
    }
}
MOTION
Frames: 7
Frame Time: 0.03333333333333333
72.5 12.399999618530273 173.0 2.0095613125563934 7.491299360498359 172.46068698523757 0.2080938759597894 0.37851255905650155 -0.007242422447739027 -9.405616946214256e-08 2.6381320422393376e-07 3.8811333472414278 110.49627852654613 60.312566471533756 -36.56087711599939 5.545685201650124e-06 1.953920372325894e-06 30.14966394424392 5.224191172906081e-05 -87.14970063967051 17.736799078877603 0.0 0.0 0.0 -96.78658904336538 43.51663729231791 28.905890585557454 -1.2080523436493593e-06 -2.584434039327425e-06 -27.755652196082014 179.99999848335173 -56.75565388301355 155.09250352000356 0.0 -1.2722218725854067e-14 0.0 5.753878597048675 -7.794624414791381 -34.1385945921876 -18.529066528876417 24.687211774344213 -16.44752415195742 64.54472078476866 -32.37285474217826 101.42491554494546 2.3854160110976376e-15 0.0 0.0 -0.6476420335178562 -6.297400296983209 33.55080392324524 19.29329241898419 25.168062513530078 13.352854464402128 -27.81138751014402 -9.87031060947946 -13.268614288152898 5.963540027744093e-16 7.951386703658791e-16 -2.9817700138720465e-16
72.5999984741211 11.0 171.1999969482422 2.009561237771505 6.501673680788558 171.97873878160038 0.2734738165867666 -0.06631023691400506 0.000827118257739415 -9.620614144889066e-08 -1.5419985505632456e-07 2.8251236519886547 108.16629033548065 62.7355149202801 -33.081783946398986 -5.883319575652013e-07 3.0653299966710132e-06 29.0241767779222 1.2251148195648146e-05 -84.27547944139006 21.563968978409758 -7.951386703658792e-16 0.0 0.0 -94.28816167433385 40.67364877824714 25.024386518722046 -1.917761320027862e-06 -4.4059349412800215e-06 -24.89335130787195 -179.9999980453009 -70.37623752435204 154.8973302403932 -9.54166404439055e-15 5.29668755766019e-31 -6.3611093629270335e-15 6.09868586069501 -7.557581073955124 -35.30848052450224 -18.57549988668559 23.51675400036338 -15.721842710927593 64.21566298517833 -30.4821193734571 101.94560673756867 -7.951386703658791e-16 1.1034765745125397e-32 -1.5902773407317582e-15 -0.17946649739122741 -6.275403114872543 34.02956796448341 19.486800632958825 25.43401405863194 13.338179425155156 -28.145949729214095 -9.500402425033517 -12.810122126608613 1.1927080055488192e-15 -7.951386703658794e-16 1.6896696745274936e-15
72.79999542236328 9.600000381469727 169.5 2.5113634947344603 6.499371418374296 171.1746668008384 0.2532070751374487 -0.06597695471167901 0.0003300319298541348 -8.570897876737705e-08 4.3094230462011453e-07 2.286417067775433 103.85279774384645 61.70159186699974 -28.80234235314415 6.517776099719363e-06 -1.979601761381713e-06 30.96521792660523 -1.535229957528464e-05 -73.00024404954057 13.747328847765234 0.0 0.0 -3.1805546814635164e-15 -93.28893507369843 40.59884105458041 24.703705670880243 -9.093894106706354e-08 -9.587673024480516e-07 -26.58215967313467 -179.9999942516247 -68.79446360364626 147.97792920031173 -3.1805546814635168e-15 0.0 0.0 6.806703275450049 -6.338288458548231 -35.23362636837617 -18.68035253580303 23.42496692852821 -15.587368185492743 64.14927237851369 -29.04687749982652 102.12839980501721 7.951386703658791e-16 -1.3793457181406746e-32 -1.9878466759146976e-15 0.41175530738321664 -5.332252778623526 33.768195715967686 19.89402210801959 25.513937911242778 13.18001770665477 -26.923776787993237 -8.87652296207787 -11.353961296041517 3.975693351829396e-16 3.975693351829396e-16 -6.957463365701443e-16
72.89999389648438 7.90000057220459 167.90000915527344 2.986629540850952 5.94908255214529 170.91978698016095 0.8666494703256176 0.1550331470231929 -0.005129099156156748 -2.2085298362246052e-07 -2.134285943759585e-07 1.9013158291683512 101.98508044922492 65.68160472467528 -28.802348153644974 2.2909893596610946e-06 2.91444296276622e-08 36.230209027869456 1.8078043173429975e-05 -77.06256538816876 13.060195124635989 1.441188840038156e-15 0.0 0.0 -92.86684093497634 43.006328886611534 25.24553113237669 4.042438903588714e-07 -1.5832164188638476e-06 -31.72538363392227 179.99999644504135 -63.488653788898 145.7321013924207 1.5902773407317584e-15 0.0 0.0 7.837037422571014 -5.973806071547617 -36.46880128518693 -19.440748663289156 23.126736378990742 -16.007687478356942 63.34135515744417 -27.183268728890962 103.35804196735965 0.0 0.0 7.951386703658792e-16 0.8379061981369501 -4.846070023306534 32.52246112462401 20.632300381679332 25.529490752382856 12.10751693719488 -28.392859126576454 -9.200804516059062 -11.607653490809124 -1.987846675914698e-15 -7.58640144977371e-32 4.373262687012335e-15
72.89999389648438 5.400000095367432 166.70001220703125 2.98662915953228 4.963024357620324 170.43435879459395 0.8002364886369997 -0.49598786775339637 0.011698150938227483 8.209721782283133e-08 3.812567363826859e-07 2.873584450144329 103.07821090578194 69.14728012785733 -34.329968038163685 -2.0092060820597057e-06 1.3168242298157488e-06 45.04400705583192 1.7028694006932952e-06 -69.58501467845204 20.36435662886367 -7.951386703658791e-16 0.0 0.0 -93.96324395536757 50.61057891294075 29.582074256050745 -1.6730917656540664e-06 1.839917230088319e-06 -40.48569730287932 -179.99998670190965 -64.98049345727152 140.82762392635857 -4.770832022195277e-15 0.0 0.0 8.047020807665882 -5.967291934847883 -36.84782102526066 -19.747873223065387 23.70785750464666 -16.287571406146252 65.2533830424936 -30.521429005042286 105.12913999468186 -7.951386703658792e-16 -1.1034765745125397e-32 1.5902773407317584e-15 0.8698772681292998 -4.700097479521649 32.8013291768122 23.153818991530994 25.961854791896926 11.164612961574239 -38.161332841572595 -10.074687996928164 -16.75899658333642 2.3854160110976376e-15 -2.275920434932113e-32 -1.0933156717530838e-15
72.89999389648438 2.200000047683716 165.8000030517578 2.4895531719846233 3.975654122339742 170.4887374644607 0.4791910166509234 -0.481100112807238 0.014569052143273505 4.542057391463084e-08 7.087802576817757e-08 1.7739873671958273 103.69240838945466 73.09768458609523 -41.30218465697877 7.304345327796337e-06 5.926927211102028e-08 56.36979182248478 -6.349521260735579e-07 -66.31608288352444 29.696747173415684 0.0 0.0 0.0 -94.35717123204496 56.173745501555345 34.99865310527503 3.97006274973523e-06 1.0182922165731419e-05 -53.441481043426904 -179.9999990438087 -67.07149432389664 135.82794138465164 0.0 0.0 0.0 7.7083155015554805 -6.00380676109702 -37.30401694633235 -22.217329483915698 25.388854485196653 -15.78854828633324 81.00935918671374 -35.540308440424326 123.21315265799586 1.590277340731758e-15 6.361109362927033e-15 1.590277340731758e-15 0.6123148275973159 -5.335813541645267 32.577285932671074 26.052647905081447 27.355183845329503 10.084502216136412 -50.59103746949577 -6.664082324961302 -17.06343121512301 1.789062008323228e-15 9.310583597449553e-33 5.963540027744093e-16
72.89999389648438 -0.30000001192092896 165.1999969482422 2.4895527790588052 1.9902602005453132 170.1237387433999 0.7269413319951238 -0.8632215349386531 0.04228030207522928 -1.2329731640092982e-08 2.2387790851697576e-07 1.5365420721662826 102.37925029687774 74.19539880000256 -48.09717148313518 9.87280587443129e-07 -1.2820600759900243e-06 68.49177203815073 -2.544164718960234e-06 -54.79707539771468 38.35997791292761 7.951386703658792e-15 -3.1805546814635168e-15 2.2069531490250793e-31 -92.03342745854168 59.61534101859203 40.29186133506527 -1.1332109046701792e-06 -2.224338859494432e-06 -68.6794933690031 179.99999990298858 -79.12014622855837 136.00179329343317 -3.3793393490549868e-15 -3.1805546814635164e-15 -6.3611093629270335e-15 8.003826130216984 -8.901331432536981 -36.933110191105776 -26.972240275196356 27.847285189003262 -14.91886039528689 93.27856807685205 -32.01730785883628 136.57975959179555 1.5902773407317588e-15 2.2069531490250793e-32 1.5902773407317588e-15 1.514992544981373 -7.8829438775855465 31.903876131455736 28.68510021364432 29.795222109159052 8.75244243200726 -59.12063518675018 -4.3795803774935145 -14.915119812254476 -1.3914926731402886e-15 -1.5902773407317584e-15 -1.987846675914698e-16
